<svg width="61" height="15" viewBox="0 0 61 15" fill="none" xmlns="http://www.w3.org/2000/svg">
<path opacity="0.4" d="M36.5 4.5C36.5 3.39543 37.3954 2.5 38.5 2.5H55.5C56.6046 2.5 57.5 3.39543 57.5 4.5V10C57.5 11.1046 56.6046 12 55.5 12H54.4687H38.5C37.3954 12 36.5 11.1046 36.5 10V4.5Z" stroke="white"/>
<path fill-rule="evenodd" clip-rule="evenodd" d="M59 9.37398C59.8626 9.15196 60.5 8.36891 60.5 7.43699C60.5 6.50507 59.8626 5.72202 59 5.5V9.37398Z" fill="white" fill-opacity="0.4"/>
<path fill-rule="evenodd" clip-rule="evenodd" d="M38 5C38 4.44772 38.4477 4 39 4H55C55.5523 4 56 4.44772 56 5V9.5C56 10.0523 55.5523 10.5 55 10.5H39C38.4477 10.5 38 10.0523 38 9.5V5Z" fill="white"/>
<path d="M5.8125 11.5H6.86719V3.04492H5.81836L3.56836 4.66211V5.77539L5.71875 4.2168H5.8125V11.5ZM12.2344 11.6992C14.1328 11.6992 15.2227 10.0938 15.2227 7.28711C15.2227 4.48633 14.1152 2.8457 12.2344 2.8457C10.3418 2.8457 9.23438 4.48047 9.23438 7.26953C9.23438 10.082 10.3301 11.6992 12.2344 11.6992ZM12.2344 10.7793C10.9863 10.7793 10.2949 9.53125 10.2949 7.26953C10.2949 5.03711 10.998 3.77148 12.2344 3.77148C13.4707 3.77148 14.1621 5.02539 14.1621 7.26953C14.1621 9.53711 13.4824 10.7793 12.2344 10.7793ZM19.793 11.6992C21.6914 11.6992 22.7812 10.0938 22.7812 7.28711C22.7812 4.48633 21.6738 2.8457 19.793 2.8457C17.9004 2.8457 16.793 4.48047 16.793 7.26953C16.793 10.082 17.8887 11.6992 19.793 11.6992ZM19.793 10.7793C18.5449 10.7793 17.8535 9.53125 17.8535 7.26953C17.8535 5.03711 18.5566 3.77148 19.793 3.77148C21.0293 3.77148 21.7207 5.02539 21.7207 7.26953C21.7207 9.53711 21.041 10.7793 19.793 10.7793ZM27.6387 4.93164C27.6387 3.73633 26.8945 2.89844 25.8398 2.89844C24.7852 2.89844 24.0352 3.74219 24.0352 4.93164C24.0352 6.12695 24.7852 6.9707 25.8398 6.9707C26.8945 6.9707 27.6387 6.12695 27.6387 4.93164ZM25.8398 6.2207C25.3184 6.2207 24.9727 5.71094 24.9727 4.93164C24.9727 4.15234 25.3125 3.64844 25.8398 3.64844C26.3672 3.64844 26.7012 4.14062 26.7012 4.93164C26.7012 5.70508 26.3555 6.2207 25.8398 6.2207ZM25.7461 11.5L28.6465 7.5332L31.9277 3.04492H30.8613L27.8965 7.09375L24.668 11.5H25.7461ZM32.5312 9.60742C32.5312 8.41211 31.7871 7.57422 30.7324 7.57422C29.6777 7.57422 28.9277 8.41797 28.9277 9.60742C28.9277 10.8027 29.6777 11.6465 30.7324 11.6465C31.7871 11.6465 32.5312 10.8027 32.5312 9.60742ZM30.7324 10.8965C30.2109 10.8965 29.8652 10.3867 29.8652 9.60742C29.8652 8.82812 30.2051 8.32422 30.7324 8.32422C31.2598 8.32422 31.5938 8.81641 31.5938 9.60742C31.5938 10.3809 31.248 10.8965 30.7324 10.8965Z" fill="white"/>
</svg>
