<svg width="16" height="10" viewBox="0 0 16 10" fill="none" xmlns="http://www.w3.org/2000/svg">
<path d="M8.17383 6.23047V5.19922H4.74609V6.125H7.125V6.33008C7.125 7.75977 6.09961 8.72656 4.58789 8.72656C2.88867 8.72656 1.83398 7.40234 1.83398 5.26953C1.83398 3.16602 2.90625 1.81836 4.58203 1.81836C5.83594 1.81836 6.68555 2.42188 7.04883 3.56445H8.12109C7.81641 1.88867 6.45703 0.845703 4.58203 0.845703C2.26758 0.845703 0.75 2.59766 0.75 5.26953C0.75 7.97656 2.24414 9.69922 4.58203 9.69922C6.74414 9.69922 8.17383 8.31641 8.17383 6.23047ZM9.63867 7.29102C9.75 8.75 10.9863 9.69922 12.7793 9.69922C14.7129 9.69922 15.9375 8.70898 15.9375 7.15625C15.9375 5.91406 15.2344 5.23438 13.4824 4.79492L12.5977 4.56055C11.4316 4.26172 10.9688 3.88086 10.9688 3.21875C10.9688 2.36328 11.7129 1.80078 12.8379 1.80078C13.8926 1.80078 14.6074 2.31641 14.7539 3.18359H15.8145C15.7266 1.81836 14.5078 0.845703 12.873 0.845703C11.0859 0.845703 9.88477 1.81836 9.88477 3.25391C9.88477 4.45508 10.5469 5.14648 12.0762 5.5332L13.1602 5.81445C14.3262 6.10742 14.8535 6.56445 14.8535 7.28516C14.8535 8.12305 14.0156 8.73828 12.8789 8.73828C11.6777 8.73828 10.834 8.17578 10.7051 7.29102H9.63867Z" fill="white"/>
</svg>
