<svg width="30" height="27" viewBox="0 0 30 27" fill="none" xmlns="http://www.w3.org/2000/svg">
<path d="M8.66635 0C3.9012 0 0 3.92571 0 8.71024C0 11.3935 1.56525 13.7734 4.09465 16.519C6.62402 19.2647 10.1784 22.442 14.4673 26.7541C14.5369 26.8241 14.6197 26.8797 14.7109 26.9176C14.8021 26.9555 14.8998 26.975 14.9985 26.975C15.0973 26.975 15.195 26.9555 15.2862 26.9176C15.3774 26.8797 15.4601 26.8241 15.5298 26.7541C19.8333 22.4415 23.3909 19.2651 25.9171 16.519C28.4432 13.773 30 11.392 30 8.71024C30 3.92553 26.0988 0 21.3336 0C18.5056 0 16.4733 1.70899 15 3.7844C13.5267 1.70898 11.4944 0 8.66635 0ZM8.66635 1.49854C11.2233 1.49854 13.0484 3.0865 14.3561 5.27122C14.4225 5.3828 14.5168 5.4752 14.6297 5.53937C14.7425 5.60355 14.8702 5.63729 15 5.63729C15.1298 5.63729 15.2575 5.60355 15.3703 5.53937C15.4832 5.4752 15.5775 5.3828 15.6439 5.27122C16.9517 3.0865 18.7767 1.49854 21.3336 1.49854C25.2767 1.49854 28.5015 4.7387 28.5015 8.71024C28.5015 10.8051 27.2538 12.8538 24.8137 15.5063C22.4991 18.0224 19.0392 21.1609 15.0029 25.1707C10.9776 21.1596 7.51369 18.0202 5.19512 15.5034C2.75112 12.8505 1.49854 10.8036 1.49854 8.71024C1.49854 4.73892 4.72336 1.49854 8.66635 1.49854Z" fill="#131940" fill-opacity="0.3"/>
</svg>
