<svg width="15" height="10" viewBox="0 0 15 10" fill="none" xmlns="http://www.w3.org/2000/svg">
<path fill-rule="evenodd" clip-rule="evenodd" d="M12.5 0C12.2239 0 12 0.223857 12 0.5V9C12 9.27614 12.2239 9.5 12.5 9.5H14C14.2761 9.5 14.5 9.27614 14.5 9V0.5C14.5 0.223858 14.2761 0 14 0H12.5ZM8.5 2.5C8.22386 2.5 8 2.72386 8 3V9C8 9.27614 8.22386 9.5 8.5 9.5H10C10.2761 9.5 10.5 9.27614 10.5 9V3C10.5 2.72386 10.2761 2.5 10 2.5H8.5ZM4 5C4 4.72386 4.22386 4.5 4.5 4.5H6C6.27614 4.5 6.5 4.72386 6.5 5V9C6.5 9.27614 6.27614 9.5 6 9.5H4.5C4.22386 9.5 4 9.27614 4 9V5ZM0.5 6.5C0.223858 6.5 0 6.72386 0 7V9C0 9.27614 0.223858 9.5 0.5 9.5H2C2.27614 9.5 2.5 9.27614 2.5 9V7C2.5 6.72386 2.27614 6.5 2 6.5H0.5Z" fill="white"/>
</svg>
