<svg width="47" height="10" viewBox="0 0 47 10" fill="none" xmlns="http://www.w3.org/2000/svg">
<path d="M3.20312 9.70508C5.35352 9.70508 6.63086 8.02344 6.63086 5.17578C6.63086 4.10352 6.42578 3.20117 6.0332 2.50391C5.46484 1.41992 4.48633 0.833984 3.25 0.833984C1.41016 0.833984 0.109375 2.07031 0.109375 3.80469C0.109375 5.43359 1.28125 6.61719 2.89258 6.61719C3.88281 6.61719 4.68555 6.1543 5.08398 5.35156H5.10156C5.10156 5.35156 5.125 5.35156 5.13086 5.35156C5.14258 5.35156 5.18359 5.35156 5.18359 5.35156C5.18359 7.28516 4.45117 8.43945 3.21484 8.43945C2.48828 8.43945 1.92578 8.04102 1.73242 7.40234H0.226562C0.478516 8.79102 1.65625 9.70508 3.20312 9.70508ZM3.25586 5.41602C2.2832 5.41602 1.5918 4.72461 1.5918 3.75781C1.5918 2.81445 2.31836 2.09375 3.26172 2.09375C4.20508 2.09375 4.93164 2.82617 4.93164 3.78125C4.93164 4.72461 4.22266 5.41602 3.25586 5.41602ZM9.34375 9.62305C9.90039 9.62305 10.2812 9.22461 10.2812 8.69727C10.2812 8.16406 9.90039 7.77148 9.34375 7.77148C8.79297 7.77148 8.40625 8.16406 8.40625 8.69727C8.40625 9.22461 8.79297 9.62305 9.34375 9.62305ZM9.34375 5.22852C9.90039 5.22852 10.2812 4.83594 10.2812 4.30859C10.2812 3.77539 9.90039 3.38281 9.34375 3.38281C8.79297 3.38281 8.40625 3.77539 8.40625 4.30859C8.40625 4.83594 8.79297 5.22852 9.34375 5.22852ZM16.0059 9.5H17.4531V7.92383H18.5957V6.64648H17.4531V1.04492H15.3203C13.8262 3.29492 12.6367 5.17578 11.875 6.57617V7.92383H16.0059V9.5ZM13.2754 6.59375C14.2598 4.85938 15.1387 3.4707 15.9473 2.27539H16.0293V6.68164H13.2754V6.59375ZM22.0586 9.5H23.5703V1.04492H22.0645L19.8555 2.5918V4.04492L21.959 2.56836H22.0586V9.5ZM34.7852 9.5H36.4082L33.4023 1.04492H31.7031L28.7031 9.5H30.2324L30.959 7.33789H34.0703L34.7852 9.5ZM32.4707 2.65625H32.5703L33.7188 6.14258H31.3105L32.4707 2.65625ZM46.5918 9.5V1.04492H44.8223L42.2793 7.20312H42.1738L39.6309 1.04492H37.8613V9.5H39.2676V3.55273H39.3496L41.6875 9.17188H42.7656L45.1035 3.55273H45.1855V9.5H46.5918Z" fill="white"/>
</svg>
