<svg width="14" height="10" viewBox="0 0 14 10" fill="none" xmlns="http://www.w3.org/2000/svg">
<path fill-rule="evenodd" clip-rule="evenodd" d="M6.98756 0.5C9.55057 0.5 11.863 1.53944 13.5 3.20688L12.4119 4.26404C11.0539 2.86553 9.126 1.99223 6.98756 1.99223C4.86289 1.99223 2.94608 2.85432 1.58956 4.23709L0.5 3.18164C2.13555 1.52896 4.43751 0.5 6.98756 0.5ZM11.3235 5.32144C10.2448 4.19175 8.70144 3.48446 6.98756 3.48446C5.28827 3.48446 3.75663 4.17976 2.67927 5.29269L3.7693 6.3486C4.5672 5.50537 5.71365 4.97668 6.98756 4.97668C8.27688 4.97668 9.43563 5.51824 10.2346 6.37933L11.3235 5.32144ZM9.14442 7.4385C8.62637 6.84545 7.85236 6.46891 6.98756 6.46891C6.13901 6.46891 5.37786 6.83143 4.86017 7.40532L7.02254 9.5L9.14442 7.4385Z" fill="white"/>
</svg>
